Input #0, mov,mp4,m4a,3gp,3g2,mj2, from '/home/runner/work/Auto_Browser/Auto_Browser/recordings/oncc/latest.mp4':
  Metadata:
    major_brand     : isom
    minor_version   : 512
    compatible_brands: isomiso2avc1mp41
    encoder         : Lavf60.16.100
  Duration: 00:02:28.00, start: 0.000000, bitrate: 487 kb/s
  Stream #0:0[0x1](und): Video: h264 (High) (avc1 / 0x31637661), yuv420p(progressive), 1366x900, 485 kb/s, 25 fps, 25 tbr, 12800 tbn (default)
    Metadata:
      handler_name    : VideoHandler
      vendor_id       : [0][0][0][0]
      encoder         : Lavc60.31.102 libx264
Stream mapping:
  Stream #0:0 -> #0:0 (h264 (native) -> vp8 (libvpx))
Press [q] to stop, [?] for help
[libvpx @ 0x564c04e76640] v1.14.0
Output #0, webm, to '/home/runner/work/Auto_Browser/Auto_Browser/recordings/oncc/latest.webm':
  Metadata:
    major_brand     : isom
    minor_version   : 512
    compatible_brands: isomiso2avc1mp41
    encoder         : Lavf60.16.100
  Stream #0:0(und): Video: vp8, yuv420p(progressive), 1366x900, q=2-31, 1800 kb/s, 25 fps, 1k tbn (default)
    Metadata:
      handler_name    : VideoHandler
      vendor_id       : [0][0][0][0]
      encoder         : Lavc60.31.102 libvpx
    Side data:
      cpb: bitrate max/min/avg: 0/0/0 buffer size: 0 vbv_delay: N/A
frame=    0 fps=0.0 q=11.0 size=       0kB time=00:00:00.00 bitrate=N/A speed=   0x    frame=   37 fps=0.0 q=47.0 size=       1kB time=00:00:01.48 bitrate=   3.4kbits/s speed=2.85x    frame=   76 fps= 74 q=12.0 size=       1kB time=00:00:03.04 bitrate=   1.7kbits/s speed=2.98x    frame=  113 fps= 74 q=13.0 size=       1kB time=00:00:04.52 bitrate=   1.1kbits/s speed=2.95x    frame=  146 fps= 72 q=13.0 size=    1024kB time=00:00:05.84 bitrate=1436.4kbits/s speed=2.87x    frame=  180 fps= 71 q=12.0 size=    1024kB time=00:00:07.20 bitrate=1165.1kbits/s speed=2.83x    frame=  218 fps= 71 q=12.0 size=    1024kB time=00:00:08.72 bitrate= 962.0kbits/s speed=2.85x    frame=  254 fps= 71 q=12.0 size=    1024kB time=00:00:10.16 bitrate= 825.7kbits/s speed=2.86x    frame=  289 fps= 71 q=12.0 size=    2304kB time=00:00:11.56 bitrate=1632.7kbits/s speed=2.84x    frame=  326 fps= 71 q=12.0 size=    2304kB time=00:00:13.04 bitrate=1447.4kbits/s speed=2.85x    frame=  363 fps= 71 q=12.0 size=    2304kB time=00:00:14.52 bitrate=1299.9kbits/s speed=2.85x    frame=  399 fps= 71 q=13.0 size=    3328kB time=00:00:15.96 bitrate=1708.2kbits/s speed=2.86x    frame=  436 fps= 71 q=11.0 size=    3328kB time=00:00:17.44 bitrate=1563.2kbits/s speed=2.86x    frame=  475 fps= 72 q=11.0 size=    3328kB time=00:00:19.00 bitrate=1434.9kbits/s speed=2.87x    frame=  512 fps= 72 q=55.0 size=    4608kB time=00:00:20.48 bitrate=1843.2kbits/s speed=2.88x    frame=  541 fps= 71 q=12.0 size=    4608kB time=00:00:21.64 bitrate=1744.4kbits/s speed=2.84x    frame=  575 fps= 71 q=11.0 size=    4608kB time=00:00:23.00 bitrate=1641.2kbits/s speed=2.83x    frame=  611 fps= 71 q=11.0 size=    4608kB time=00:00:24.44 bitrate=1544.5kbits/s speed=2.83x    frame=  647 fps= 71 q=11.0 size=    5888kB time=00:00:25.88 bitrate=1863.8kbits/s speed=2.83x    frame=  684 fps= 71 q=11.0 size=    5888kB time=00:00:27.36 bitrate=1763.0kbits/s speed=2.84x    frame=  723 fps= 71 q=11.0 size=    5888kB time=00:00:28.92 bitrate=1667.9kbits/s speed=2.85x    frame=  762 fps= 72 q=10.0 size=    5888kB time=00:00:30.48 bitrate=1582.5kbits/s speed=2.86x    frame=  797 fps= 71 q=10.0 size=    6656kB time=00:00:31.88 bitrate=1710.3kbits/s speed=2.86x    frame=  836 fps= 72 q=11.0 size=    6656kB time=00:00:33.44 bitrate=1630.6kbits/s speed=2.87x    frame=  878 fps= 72 q=8.0 size=    6656kB time=00:00:35.08 bitrate=1554.3kbits/s speed=2.88x    frame=  916 fps= 72 q=8.0 size=    7680kB time=00:00:36.64 bitrate=1717.1kbits/s speed=2.89x    frame=  956 fps= 73 q=8.0 size=    7680kB time=00:00:38.24 bitrate=1645.3kbits/s speed= 2.9x    frame=  993 fps= 73 q=8.0 size=    7680kB time=00:00:39.72 bitrate=1584.0kbits/s speed= 2.9x    frame= 1030 fps= 73 q=11.0 size=    8448kB time=00:00:41.20 bitrate=1679.8kbits/s speed= 2.9x    frame= 1068 fps= 73 q=8.0 size=    8448kB time=00:00:42.72 bitrate=1620.0kbits/s speed=2.91x    frame= 1107 fps= 73 q=7.0 size=    8448kB time=00:00:44.28 bitrate=1562.9kbits/s speed=2.91x    frame= 1145 fps= 73 q=6.0 size=    8448kB time=00:00:45.80 bitrate=1511.0kbits/s speed=2.92x    frame= 1186 fps= 73 q=7.0 size=    9472kB time=00:00:47.44 bitrate=1635.6kbits/s speed=2.93x    frame= 1226 fps= 73 q=7.0 size=    9472kB time=00:00:49.04 bitrate=1582.3kbits/s speed=2.93x    frame= 1266 fps= 74 q=7.0 size=    9472kB time=00:00:50.64 bitrate=1532.3kbits/s speed=2.94x    frame= 1308 fps= 74 q=7.0 size=   10240kB time=00:00:52.32 bitrate=1603.3kbits/s speed=2.95x    frame= 1349 fps= 74 q=7.0 size=   10240kB time=00:00:53.96 bitrate=1554.6kbits/s speed=2.96x    frame= 1389 fps= 74 q=7.0 size=   10240kB time=00:00:55.56 bitrate=1509.8kbits/s speed=2.96x    frame= 1430 fps= 74 q=7.0 size=   11264kB time=00:00:57.20 bitrate=1613.2kbits/s speed=2.97x    frame= 1468 fps= 74 q=7.0 size=   11264kB time=00:00:58.72 bitrate=1571.4kbits/s speed=2.97x    frame= 1508 fps= 74 q=7.0 size=   11264kB time=00:01:00.32 bitrate=1529.8kbits/s speed=2.98x    frame= 1547 fps= 74 q=6.0 size=   12032kB time=00:01:01.88 bitrate=1592.9kbits/s speed=2.98x    frame= 1589 fps= 75 q=6.0 size=   12032kB time=00:01:03.56 bitrate=1550.8kbits/s speed=2.99x    frame= 1626 fps= 75 q=7.0 size=   12032kB time=00:01:05.04 bitrate=1515.5kbits/s speed=2.99x    frame= 1661 fps= 75 q=9.0 size=   12032kB time=00:01:06.44 bitrate=1483.5kbits/s speed=2.98x    frame= 1692 fps= 74 q=8.0 size=   13312kB time=00:01:07.68 bitrate=1611.3kbits/s speed=2.97x    frame= 1724 fps= 74 q=8.0 size=   13312kB time=00:01:08.96 bitrate=1581.4kbits/s speed=2.96x    frame= 1756 fps= 74 q=10.0 size=   13312kB time=00:01:10.24 bitrate=1552.6kbits/s speed=2.95x    frame= 1789 fps= 74 q=8.0 size=   13312kB time=00:01:11.56 bitrate=1523.9kbits/s speed=2.94x    frame= 1821 fps= 73 q=10.0 size=   15104kB time=00:01:12.84 bitrate=1698.7kbits/s speed=2.94x    frame= 1854 fps= 73 q=10.0 size=   15104kB time=00:01:14.16 bitrate=1668.4kbits/s speed=2.93x    frame= 1886 fps= 73 q=10.0 size=   15104kB time=00:01:15.44 bitrate=1640.1kbits/s speed=2.92x    frame= 1921 fps= 73 q=10.0 size=   16640kB time=00:01:16.84 bitrate=1774.0kbits/s speed=2.92x    frame= 1956 fps= 73 q=11.0 size=   16640kB time=00:01:18.24 bitrate=1742.3kbits/s speed=2.92x    frame= 1992 fps= 73 q=12.0 size=   16640kB time=00:01:19.68 bitrate=1710.8kbits/s speed=2.92x    frame= 2026 fps= 73 q=20.0 size=   16640kB time=00:01:21.04 bitrate=1682.1kbits/s speed=2.91x    frame= 2055 fps= 73 q=25.0 size=   17920kB time=00:01:22.20 bitrate=1785.9kbits/s speed= 2.9x    frame= 2084 fps= 72 q=28.0 size=   17920kB time=00:01:23.36 bitrate=1761.0kbits/s speed=2.89x    frame= 2114 fps= 72 q=21.0 size=   17920kB time=00:01:24.56 bitrate=1736.1kbits/s speed=2.88x    frame= 2149 fps= 72 q=14.0 size=   17920kB time=00:01:25.96 bitrate=1707.8kbits/s speed=2.88x    frame= 2182 fps= 72 q=27.0 size=   19200kB time=00:01:27.28 bitrate=1802.1kbits/s speed=2.87x    frame= 2214 fps= 72 q=20.0 size=   19200kB time=00:01:28.56 bitrate=1776.0kbits/s speed=2.87x    frame= 2243 fps= 71 q=31.0 size=   19200kB time=00:01:29.72 bitrate=1753.1kbits/s speed=2.86x    frame= 2269 fps= 71 q=30.0 size=   19200kB time=00:01:30.76 bitrate=1733.0kbits/s speed=2.85x    frame= 2301 fps= 71 q=14.0 size=   19200kB time=00:01:32.04 bitrate=1708.9kbits/s speed=2.84x    frame= 2337 fps= 71 q=10.0 size=   20480kB time=00:01:33.48 bitrate=1794.7kbits/s speed=2.84x    frame= 2379 fps= 71 q=9.0 size=   20480kB time=00:01:35.16 bitrate=1763.1kbits/s speed=2.85x    frame= 2418 fps= 71 q=8.0 size=   20480kB time=00:01:36.72 bitrate=1734.6kbits/s speed=2.85x    frame= 2455 fps= 71 q=13.0 size=   21248kB time=00:01:38.20 bitrate=1772.5kbits/s speed=2.85x    frame= 2493 fps= 71 q=8.0 size=   21248kB time=00:01:39.72 bitrate=1745.5kbits/s speed=2.85x    frame= 2530 fps= 71 q=8.0 size=   21248kB time=00:01:41.20 bitrate=1720.0kbits/s speed=2.86x    frame= 2568 fps= 71 q=14.0 size=   22528kB time=00:01:42.72 bitrate=1796.6kbits/s speed=2.86x    frame= 2608 fps= 72 q=8.0 size=   22528kB time=00:01:44.32 bitrate=1769.1kbits/s speed=2.86x    frame= 2646 fps= 72 q=9.0 size=   22528kB time=00:01:45.84 bitrate=1743.7kbits/s speed=2.86x    frame= 2680 fps= 72 q=18.0 size=   22528kB time=00:01:47.20 bitrate=1721.5kbits/s speed=2.86x    frame= 2705 fps= 71 q=23.0 size=   23552kB time=00:01:48.20 bitrate=1783.2kbits/s speed=2.85x    frame= 2738 fps= 71 q=14.0 size=   23552kB time=00:01:49.52 bitrate=1761.7kbits/s speed=2.85x    frame= 2767 fps= 71 q=16.0 size=   23552kB time=00:01:50.68 bitrate=1743.2kbits/s speed=2.84x    frame= 2797 fps= 71 q=12.0 size=   23552kB time=00:01:51.88 bitrate=1724.5kbits/s speed=2.83x    frame= 2828 fps= 71 q=18.0 size=   24832kB time=00:01:53.12 bitrate=1798.3kbits/s speed=2.83x    frame= 2859 fps= 71 q=29.0 size=   24832kB time=00:01:54.36 bitrate=1778.8kbits/s speed=2.82x    frame= 2886 fps= 70 q=30.0 size=   24832kB time=00:01:55.44 bitrate=1762.2kbits/s speed=2.81x    frame= 2913 fps= 70 q=38.0 size=   24832kB time=00:01:56.52 bitrate=1745.8kbits/s speed=2.81x    frame= 2940 fps= 70 q=32.0 size=   24832kB time=00:01:57.60 bitrate=1729.8kbits/s speed= 2.8x    frame= 2967 fps= 70 q=30.0 size=   26112kB time=00:01:58.68 bitrate=1802.4kbits/s speed=2.79x    frame= 3002 fps= 70 q=18.0 size=   26112kB time=00:02:00.08 bitrate=1781.4kbits/s speed=2.79x    frame= 3036 fps= 70 q=14.0 size=   26112kB time=00:02:01.44 bitrate=1761.4kbits/s speed=2.79x    frame= 3072 fps= 70 q=51.0 size=   27136kB time=00:02:02.88 bitrate=1809.1kbits/s speed=2.79x    frame= 3106 fps= 70 q=11.0 size=   27392kB time=00:02:04.24 bitrate=1806.1kbits/s speed=2.79x    frame= 3143 fps= 70 q=10.0 size=   27392kB time=00:02:05.72 bitrate=1784.9kbits/s speed=2.79x    frame= 3179 fps= 70 q=10.0 size=   27392kB time=00:02:07.16 bitrate=1764.7kbits/s speed=2.79x    frame= 3213 fps= 70 q=11.0 size=   28416kB time=00:02:08.52 bitrate=1811.3kbits/s speed=2.79x    frame= 3250 fps= 70 q=10.0 size=   28416kB time=00:02:10.00 bitrate=1790.6kbits/s speed=2.79x    frame= 3281 fps= 70 q=10.0 size=   28416kB time=00:02:11.24 bitrate=1773.7kbits/s speed=2.79x    frame= 3317 fps= 70 q=10.0 size=   28416kB time=00:02:12.68 bitrate=1754.5kbits/s speed=2.79x    frame= 3348 fps= 70 q=10.0 size=   29440kB time=00:02:13.92 bitrate=1800.9kbits/s speed=2.78x    frame= 3382 fps= 70 q=11.0 size=   29440kB time=00:02:15.28 bitrate=1782.8kbits/s speed=2.78x    frame= 3415 fps= 70 q=10.0 size=   29440kB time=00:02:16.60 bitrate=1765.5kbits/s speed=2.78x    frame= 3445 fps= 69 q=11.0 size=   29440kB time=00:02:17.80 bitrate=1750.2kbits/s speed=2.78x    frame= 3476 fps= 69 q=12.0 size=   30464kB time=00:02:19.04 bitrate=1794.9kbits/s speed=2.77x    frame= 3510 fps= 69 q=11.0 size=   30464kB time=00:02:20.40 bitrate=1777.5kbits/s speed=2.77x    frame= 3544 fps= 69 q=10.0 size=   30464kB time=00:02:21.76 bitrate=1760.4kbits/s speed=2.77x    frame= 3579 fps= 69 q=10.0 size=   30464kB time=00:02:23.16 bitrate=1743.2kbits/s speed=2.77x    frame= 3614 fps= 69 q=8.0 size=   31744kB time=00:02:24.56 bitrate=1798.9kbits/s speed=2.77x    frame= 3649 fps= 69 q=14.0 size=   31744kB time=00:02:25.96 bitrate=1781.6kbits/s speed=2.77x    frame= 3683 fps= 69 q=10.0 size=   31744kB time=00:02:27.32 bitrate=1765.2kbits/s speed=2.77x    [out#0/webm @ 0x564c04db1340] video:32875kB audio:0kB subtitle:0kB other streams:0kB global headers:0kB muxing overhead: 0.082985%
frame= 3700 fps= 69 q=10.0 Lsize=   32902kB time=00:02:27.96 bitrate=1821.7kbits/s speed=2.77x    
